<?xml version="1.0" encoding="UTF-8"?>
<svg version="1.1" viewBox="0 0 1600 1600" width="1280" height="1280" xmlns="http://www.w3.org/2000/svg">
<path transform="translate(1109,739)" d="m0 0h19c0.33 68.6 0.66 137 1 208 2.64 0.66 5.28 1.32 8 2 16.6 5.96 29.6 17.5 37.3 33.4 7.02 17.4 4.51 36.7-2.31 53.6h-2c-0.227 0.866-0.454 1.73-0.688 2.62-3.6 9.26-13.1 16.1-21.3 21.4-0.557 0.36-1.11 0.719-1.69 1.09-13.6 7.78-31.3 7.32-46.1 3.84-4.29-1.24-8.27-2.87-12.2-4.93v-2c-0.723-0.244-1.45-0.487-2.19-0.738-7.55-3.39-13.8-10.8-18.8-17.3v-2c-30.4 0.0819-60.8 0.174-91.1 0.28-3.58 0.0125-7.17 0.025-10.8 0.0373-1.07 0.0037-1.07 0.0037-2.16 0.00747-11.6 0.0397-23.1 0.0725-34.7 0.103-11.9 0.0311-23.7 0.0697-35.6 0.115-6.66 0.0254-13.3 0.0471-20 0.0606-6.27 0.0128-12.5 0.0348-18.8 0.064-2.3 0.00909-4.61 0.0148-6.91 0.0168-3.14 0.00331-6.28 0.0188-9.42 0.0373-0.918-0.00193-1.84-0.00387-2.78-0.00586-0.84 0.00747-1.68 0.0149-2.55 0.0226-0.725 0.00228-1.45 0.00456-2.2 0.0069-2.42 0.303-3.99 0.927-6.03 2.25-0.33 0.99-0.66 1.98-1 3-4.5 4.78-10.1 8.72-15.2 12.8-0.594 0.48-1.19 0.96-1.8 1.46-6.54 5.17-6.54 5.17-10 5.73-2.4-1.36-4.18-2.61-6.25-4.38-0.567-0.46-1.13-0.919-1.72-1.39-4.18-3.42-8.25-6.98-12.2-10.6-1.92-1.77-1.92-1.77-4.8-3.59v-2c-1.65-0.66-3.3-1.32-5-2v-1c-90.1-0.33-180-0.66-273-1-0.33-0.66-0.66-1.32-1-2 1.42-2.58 2.9-5.03 4.5-7.5 0.461-0.725 0.922-1.45 1.4-2.2 3-4.68 6.11-9.27 9.35-13.8 1.73-2.48 3.36-5.01 4.97-7.57 3.77-5.96 7.67-11.8 11.6-17.7 0.7-1.05 1.4-2.1 2.12-3.17 1.39-2.08 2.78-4.16 4.17-6.24 1.63-2.43 3.25-4.87 4.88-7.3 0.43-0.644 0.859-1.29 1.3-1.95 0.797-1.2 1.59-2.4 2.39-3.6 1.88-2.83 3.78-5.64 5.75-8.42 0.749-1.07 1.5-2.15 2.27-3.25 0.664-0.932 1.33-1.86 2.01-2.82 1.5-2.33 1.5-2.33 1.14-4.56-2.84-6.52-6.72-12.3-10.8-18.1-2.29-3.24-4.49-6.53-6.69-9.84-0.626-0.942-0.626-0.942-1.26-1.9-0.883-1.33-1.76-2.66-2.65-3.99-1.99-2.99-3.98-5.98-5.98-8.97-1.54-2.31-3.08-4.62-4.62-6.93-1.65-2.48-3.3-4.95-4.96-7.42-4.4-6.57-8.71-13.2-13-19.8-0.663-1.03-0.663-1.03-1.34-2.08-0.635-0.988-0.635-0.988-1.28-2-1.16-1.78-2.36-3.52-3.56-5.27-1.67-2.62-1.67-2.62-1.67-4.62 3.05-1.52 6.23-1.18 9.57-1.21 0.781-0.0099 1.56-0.0198 2.37-0.03 2.59-0.0316 5.17-0.0564 7.76-0.0811 1.79-0.0206 3.58-0.0416 5.37-0.063 4.72-0.0553 9.44-0.105 14.2-0.153 5.66-0.059 11.3-0.125 17-0.19 8.6-0.098 17.2-0.187 25.8-0.277 0.33-21.5 0.66-42.9 1-65 10.1 3.37 10.1 3.37 13.6 4.87 0.762 0.326 1.52 0.651 2.31 0.987 0.78 0.337 1.56 0.674 2.36 1.02 5.51 2.35 11 4.65 16.6 6.75 5.33 2.01 10.5 4.35 15.6 6.77 4.66 2.13 9.39 4.06 14.1 5.99 5.58 2.27 11.1 4.64 16.6 7.06 3.25 1.39 6.54 2.63 9.84 3.89 7.8 2.98 15.5 6.27 23.1 9.56 5.51 2.35 11 4.62 16.6 6.75 5.41 2.06 10.5 4.38 15.7 6.92 8.81 3.75 16.6 4.87 26.1 4.83 1.24 0.00686 2.48 0.0137 3.75 0.0208 3.37 0.0151 6.74 0.0168 10.1 0.0111 2.83-0.00311 5.66 0.00302 8.48 0.00904 6.68 0.014 13.4 0.0125 20 0.0011 6.86-0.0115 13.7 0.00258 20.6 0.0294 5.92 0.0223 11.8 0.0288 17.8 0.0229 3.52-0.00335 7.04-0.0011 10.6 0.0163 3.93 0.0185 7.87 0.00418 11.8-0.0129 1.14 0.00967 2.29 0.0193 3.47 0.0293 12.5-0.113 23.4-4.59 34.8-9.47 1.99-0.842 3.98-1.68 5.97-2.53 0.983-0.418 1.97-0.836 2.98-1.27 7.74-3.29 15.5-6.49 23.3-9.65 9.79-3.95 9.79-3.95 19.4-8.24 5.37-2.51 10.9-4.61 16.4-6.7 4-1.52 7.92-3.16 11.8-4.95 6.84-3.15 13.8-6 20.8-8.86 2.25-0.923 4.49-1.85 6.73-2.78 1.46-0.602 2.93-1.2 4.39-1.81 0.652-0.27 1.3-0.54 1.98-0.818 5.67-2.32 11.4-4.36 17.1-6.46 0.33 20.8 0.66 41.6 1 63 29 0.33 58.1 0.66 88 1v-115zm-2 127c-5.03 5.39-8.95 11.8-13 18-1.84 2.75-3.74 5.42-5.7 8.07-3.67 4.98-7.15 10.1-10.6 15.2-4.08 6-8.23 11.9-12.6 17.8-9.01 11-9.01 11-13.1 24 1.13 2.76 1.13 2.76 3 5.31 0.646 0.944 1.29 1.89 1.96 2.86 0.674 0.933 1.35 1.87 2.04 2.83 0.623 0.871 1.25 1.74 1.89 2.64 3.76 5.13 3.76 5.13 9.11 8.36 0.482-0.566 0.964-1.13 1.46-1.71 0.632-0.733 1.26-1.47 1.91-2.22 0.626-0.731 1.25-1.46 1.9-2.21 1.73-1.85 1.73-1.85 3.73-2.85v-2c2.47-0.99 2.47-0.99 5-2v-2c0.567-0.125 1.13-0.25 1.72-0.379 2.4-0.652 4.52-1.53 6.78-2.56 0.753-0.339 1.51-0.678 2.28-1.03 2.17-0.979 2.17-0.979 4-2.04 3.24-1.45 6.78-2.14 10.2-3v-81h-2zm0 101c-0.655 0.184-1.31 0.369-1.98 0.559-9.63 3.1-16.4 8.99-21.6 17.5-0.454 0.641-0.908 1.28-1.38 1.94h-2c1.61 4.8 4.3 8.59 7.19 12.7 0.495 0.71 0.989 1.42 1.5 2.15 1.43 2.06 2.87 4.11 4.31 6.16 0.672 0.963 1.34 1.93 2.04 2.92 1.65 2.36 3.31 4.72 4.96 7.08 1.79 2.56 3.57 5.11 5.36 7.67 1.48 2.11 3 4.19 4.52 6.27 2.12 3.06 2.12 3.06 3.12 6.06h-20c0.33 0.66 0.66 1.32 1 2h2v2c1.73 0.819 3.46 1.63 5.19 2.44 0.963 0.452 1.93 0.905 2.92 1.37 9.61 3.95 20.4 3.02 29.9-0.809 4.44-1.98 7.7-4.26 11.2-7.56 0.851-0.785 1.7-1.57 2.58-2.38 1.41-1.33 2.8-2.69 4.17-4.06v-3h2c5.29-10.9 7.32-21.7 4.01-33.5-2.06-5.16-4.51-10.1-8.01-14.5h-2l-2-4h-2c-0.495-1.48-0.495-1.48-1-3-11-7-23.4-9.9-36-6zm-28 18 1 2z" fill="#FBFCFE"/>
<path transform="translate(807 566)" d="m0 0c0.752 0.0384 1.5 0.0769 2.28 0.116 7.49 0.508 14.6 2.04 21.5 4.82 1.12 0.443 2.24 0.887 3.39 1.34 1.19 0.485 2.38 0.969 3.61 1.47 0.613 0.249 1.23 0.498 1.86 0.754 7.05 2.87 14.1 5.8 21.1 8.74 2.09 0.876 4.19 1.75 6.29 2.63 1.04 0.434 2.07 0.867 3.14 1.31 5.24 2.18 10.5 4.31 15.8 6.31 5.23 1.97 10.3 4.28 15.3 6.65 10.5 4.79 21.3 8.91 32 13 5.51 2.13 10.8 4.55 16.2 7.08 4.42 1.98 8.92 3.66 13.5 5.29 4.18 1.52 8.24 3.22 12.3 5.05 5.06 2.26 10.2 4.4 15.3 6.57 1.64 0.697 1.64 0.697 3.3 1.41 5.54 2.35 11.1 4.61 16.7 6.75 4.36 1.66 8.64 3.42 12.9 5.35 4.99 2.25 10 4.36 15.1 6.49 1.64 0.697 1.64 0.697 3.3 1.41 5.54 2.35 11.1 4.61 16.7 6.75 4.36 1.66 8.64 3.42 12.9 5.35 4.99 2.25 10 4.36 15.1 6.49 1.64 0.697 1.64 0.697 3.3 1.41 5.54 2.35 11.1 4.61 16.7 6.75 4.36 1.66 8.63 3.42 12.9 5.34 2.86 1.28 5.75 2.5 8.65 3.71 1.11 0.465 2.22 0.931 3.36 1.41 2.28 0.957 4.57 1.91 6.85 2.87 5.95 2.5 11.8 5.09 17.5 8.07-1.64 3.58-2.78 4.76-6.38 6.44-0.898 0.422-1.8 0.843-2.72 1.28-8.17 3.62-16.4 6.92-24.8 10.1-2.75 1.07-5.47 2.21-8.18 3.38-2.14 0.924-4.3 1.83-6.45 2.73-0.794 0.333-1.59 0.666-2.41 1.01-1.62 0.68-3.24 1.36-4.87 2.04-3.98 1.67-7.95 3.37-11.9 5.14-3.6 1.61-7.24 3.08-10.9 4.47-3.86 1.45-7.67 2.97-11.5 4.61-2.14 0.924-4.29 1.83-6.44 2.73-0.794 0.333-1.59 0.666-2.41 1.01-1.62 0.68-3.24 1.36-4.87 2.04-3.98 1.67-7.95 3.37-11.9 5.14-3.6 1.61-7.24 3.08-10.9 4.47-4.51 1.71-8.95 3.51-13.4 5.44-2.94 1.23-5.88 2.45-8.82 3.68-2.09 0.87-4.18 1.74-6.27 2.62-4.66 1.95-9.33 3.87-14 5.71-3.42 1.35-6.67 2.88-9.94 4.56-3.8 1.95-7.53 3.36-11.6 4.63-3.6 1.24-7 2.88-10.5 4.48-8.08 3.7-16.4 6.9-24.7 10.1-6.98 2.71-13.9 5.6-20.7 8.75-4.87 2.24-9.83 4.16-14.8 6.05-6.91 2.69-13.7 5.63-20.6 8.53-3.8 1.61-7.6 3.19-11.4 4.77-1.94 0.805-3.87 1.61-5.8 2.42-5.45 2.28-10.9 4.52-16.4 6.69-1.84 0.748-3.68 1.53-5.5 2.33-21.8 9.49-46.9 8.81-69.1 0.711-2.24-0.927-4.44-1.91-6.63-2.94-2.87-1.29-5.8-2.39-8.74-3.5-4.01-1.52-7.93-3.12-11.8-4.94-5.71-2.66-11.6-4.9-17.4-7.13-4.26-1.62-8.3-3.44-12.4-5.5-2.05-0.817-4.12-1.61-6.19-2.38-5.17-1.96-10.2-4.11-15.2-6.44-3.36-1.52-6.79-2.87-10.2-4.22-2.33-0.936-4.61-1.93-6.9-2.96-4.78-2.15-9.63-4.08-14.5-6-14.6-5.78-14.6-5.78-19.6-8.06-4.64-2.11-9.39-3.9-14.2-5.69-5.37-2.08-10.6-4.42-15.9-6.74-10.6-4.68-21.3-9.18-32.2-13.3-2.75-1.07-5.47-2.21-8.18-3.38-2.14-0.924-4.3-1.83-6.45-2.73-0.794-0.333-1.59-0.666-2.41-1.01-1.62-0.68-3.24-1.36-4.87-2.04-3.98-1.67-7.95-3.37-11.9-5.14-3.6-1.61-7.24-3.08-10.9-4.47-3.86-1.45-7.67-2.97-11.5-4.61-2.14-0.924-4.29-1.83-6.44-2.73-0.794-0.333-1.59-0.666-2.41-1.01-1.62-0.68-3.24-1.36-4.87-2.04-3.98-1.67-7.95-3.37-11.9-5.14-3.6-1.61-7.24-3.08-10.9-4.47-3.83-1.44-7.61-2.95-11.4-4.57-2.39-1.03-4.78-2.02-7.18-3.02-1.86-0.781-3.72-1.56-5.58-2.34-0.945-0.391-1.89-0.781-2.86-1.18-0.906-0.383-1.81-0.766-2.75-1.16-0.82-0.342-1.64-0.684-2.48-1.04-2.2-1.14-3.6-2.2-5.16-4.12v-2c5.62-2.98 11.4-5.39 17.3-7.72 3.74-1.48 7.42-3.02 11.1-4.72 9.96-4.61 20.2-8.6 30.4-12.7 6.94-2.76 13.8-5.56 20.6-8.72 3.73-1.68 7.53-3.18 11.3-4.68 18.5-7.32 18.5-7.32 36.7-15.4 4.35-1.95 8.79-3.67 13.2-5.42 11.7-4.63 23.4-9.27 34.8-14.6 4.35-1.95 8.79-3.67 13.2-5.42 11.7-4.63 23.4-9.27 34.8-14.6 4.35-1.95 8.79-3.67 13.2-5.42 17.4-6.9 17.4-6.9 34.5-14.5 4.61-2.02 9.31-3.8 14-5.57 4.09-1.56 8.09-3.23 12.1-5.07 6.12-2.82 12.4-5.32 18.6-7.79 1.1-0.438 2.2-0.875 3.34-1.33 2.03-0.808 4.07-1.62 6.1-2.42 1.77-0.7 3.52-1.42 5.27-2.16 3.77-1.41 7.55-1.7 11.5-2.09 0.874-0.086 1.75-0.172 2.65-0.261 6.17-0.534 12.2-0.622 18.4-0.302z" fill="#000100"/>
<path transform="translate(1033,885)" d="m0 0c1.01 3.89 0.902 6.69 0.0754 10.6-0.227 1.1-0.455 2.21-0.689 3.34-0.255 1.19-0.51 2.37-0.773 3.6-0.258 1.24-0.517 2.48-0.783 3.75-0.69 3.3-1.39 6.59-2.09 9.89-0.699 3.29-1.39 6.58-2.07 9.86-2.8 13.3-5.67 26.7-8.67 40-0.953 4.25-1.89 8.5-2.81 12.8-0.229 1.01-0.458 2.03-0.693 3.07-1.55 7.08-1.55 7.08-0.494 14.2 3.2 2.56 8.08 3.08 12 4-1.08 5.7-2.35 10.2-7 14-5.97 3.61-11.3 5.08-18.2 3.49-7.53-2.19-11.8-5.62-15.8-12.5-0.926 0.797-0.926 0.797-1.87 1.61-8.9 7.42-17.3 12.2-29.1 11.4-6.02-1.06-9.96-3.53-14-8-1.44-2.88-1.44-2.88-2-5-2.99 0.333-4.02 1.02-6.19 3.19-6.24 6.24-12.3 9.92-21.2 10-8.73-0.173-14.3-3.38-20.6-9.19-1.04-1.31-2.05-2.63-3-4-3.43 1.04-5.62 2.46-8.19 4.88-6.74 6.03-15.9 8.47-24.8 8.27-6.57-0.453-10.5-2.93-15.3-7.09-4.8-5.78-4.37-13.5-3.94-20.6 1.17-11.8 4.33-23.4 6.91-34.9 0.411-1.83 0.411-1.83 0.83-3.7 0.534-2.37 1.07-4.73 1.62-7.09 0.368-1.61 0.368-1.61 0.744-3.25 0.22-0.946 0.439-1.89 0.665-2.87 0.465-2.61 0.559-5 0.471-7.65-1.65-0.66-3.3-1.32-5-2 0.688-2.88 0.688-2.88 2-6 0.808-0.262 1.62-0.523 2.45-0.793 2.83-1 2.83-1 3.81-4.08 0.286-1.18 0.572-2.35 0.867-3.57 0.326-1.25 0.652-2.5 0.988-3.79 0.553-2.35 1.08-4.71 1.55-7.07 0.319-1.46 0.319-1.46 0.645-2.95 0.161-0.871 0.322-1.74 0.488-2.64 1.2-2.11 1.2-2.11 4.19-3.33 4.57-1.02 9.23-1.51 13.9-1.96 0.866-0.0947 1.73-0.189 2.62-0.287 4.74-0.487 4.74-0.487 6.5-0.525 0.495 0.495 0.495 0.495 1 1-0.0663 7.17-1.72 14.4-3.07 21.4-0.35 1.87-0.645 3.75-0.929 5.63 1.57 1.57 3.43 1.61 5.56 2.06 0.826 0.177 1.65 0.353 2.5 0.535 0.638 0.133 1.28 0.266 1.93 0.402-0.66 2.31-1.32 4.62-2 7-3.63 0.33-7.26 0.66-11 1-0.28 1.43-0.559 2.87-0.848 4.34-0.404 2.05-0.809 4.1-1.21 6.16-0.217 1.1-0.434 2.2-0.657 3.33-1.31 6.58-2.7 13.1-4.17 19.7-0.159 0.712-0.319 1.42-0.483 2.16-0.786 3.51-1.58 7.02-2.39 10.5-2.22 9.32-2.22 9.32-2.24 18.8 4.04 2.69 7.25 2.79 12 2 3.33-1.66 6.29-3.59 8-7 0.229-1.42 0.415-2.84 0.578-4.26 2.68-21.8 8.65-44 26.5-58.4 9.91-6.74 20.1-8.81 31.9-7.31 3.38 1.3 5.22 2.63 8 5 0.66-1.32 1.32-2.64 2-4 3.98-0.0289 7.96-0.0468 11.9-0.0625 1.14-0.00838 2.27-0.0168 3.44-0.0254 1.08-0.00322 2.16-0.00645 3.27-0.00977 1.5-0.00786 1.5-0.00786 3.03-0.0159 2.32 0.114 2.32 0.114 3.32 1.11-0.492 9.66-2.77 19-4.81 28.4-0.348 1.62-0.695 3.25-1.04 4.87-0.258 1.21-0.258 1.21-0.521 2.44-0.347 1.62-0.692 3.25-1.04 4.87-0.896 4.21-1.82 8.4-2.78 12.6-0.19 0.851-0.381 1.7-0.577 2.58-0.361 1.61-0.732 3.23-1.11 4.84-1.04 4.72-1.35 8.59-0.121 13.4 3.71 2.47 6.7 2.65 11 2 5.36-2.8 6.93-7.62 9-13 0.898-2.95 1.56-5.92 2.19-8.94 0.298-1.36 0.298-1.36 0.602-2.75 0.748-3.44 1.48-6.87 2.21-10.3 0.507-2.36 1.01-4.73 1.52-7.09 1.74-8.07 3.46-16.1 5.19-24.2 0.288-1.35 0.288-1.35 0.583-2.72 1.1-5.13 2.19-10.3 3.27-15.4 0.636-3 1.28-5.99 1.92-8.99 0.297-1.39 0.591-2.78 0.883-4.17 0.399-1.9 0.808-3.81 1.22-5.71 0.226-1.06 0.451-2.13 0.683-3.22 0.727-2.5 0.727-2.5 2.73-4.5 2.72-0.637 5.38-1.17 8.12-1.62 0.735-0.134 1.47-0.268 2.23-0.406 4.95-0.854 9.63-1.09 14.6-0.969z" fill="#101D15"/>
<path transform="translate(746 925)" d="m0 0c6.43 6.83 7.94 14.3 8.91 23.3 1.07 1.3 1.07 1.3 3.62 1.13 1.08-0.00258 2.15-0.00516 3.26-0.00781 1.07 0.00258 2.14 0.00516 3.24 0.00781 2.95-0.00497 2.95-0.00497 5.88-1.13 0.839-2.26 0.839-2.26 1.28-5.02 0.202-1.02 0.405-2.04 0.613-3.09 0.2-1.08 0.4-2.15 0.605-3.26 0.396-2.11 0.802-4.23 1.22-6.34 0.262-1.41 0.262-1.41 0.529-2.85 0.841-2.72 1.39-3.84 3.75-5.44 2.53-0.356 2.53-0.356 5.51-0.328 1.6 0.00773 1.6 0.00773 3.24 0.0156 1.12 0.0206 2.23 0.0412 3.38 0.0625 1.68 0.00773 1.68 0.00773 3.4 0.0156 8.32 0.0805 8.32 0.0805 9.47 1.23 0.0409 2.33 0.0424 4.67 0 7 1.04-0.577 2.08-1.15 3.15-1.75 15.6-8.42 15.6-8.42 22.9-6.25 2.94 2.19 2.94 2.19 5 5 0.598 0.742 1.2 1.49 1.81 2.25 1.71 3.95 1.77 7.51 1.19 11.8-1.48 3.23-3.27 5.72-6 8-3.61 1.2-6.21 1.33-10 1-4.81-2.73-6.18-6.01-8-11-5.01 0.477-8.14 1.74-12 5-2.67 5.29-3.94 10.5-5.09 16.3-0.182 0.886-0.365 1.77-0.552 2.69-0.585 2.85-1.16 5.71-1.74 8.56-0.795 3.88-1.59 7.77-2.39 11.6-0.194 0.944-0.387 1.89-0.587 2.86-2.06 10-4.32 20-6.64 29.9h-26c-0.869-4.34-1.09-5.8-0.196-9.8 0.2-0.924 0.401-1.85 0.607-2.8 0.336-1.48 0.336-1.48 0.678-2.99 0.223-1.02 0.447-2.05 0.677-3.1 0.714-3.27 1.44-6.54 2.17-9.8 0.724-3.27 1.45-6.53 2.16-9.8 0.445-2.03 0.896-4.06 1.35-6.09 0.203-0.924 0.407-1.85 0.616-2.8 0.181-0.809 0.361-1.62 0.547-2.45 0.409-2.49 0.453-4.83 0.386-7.35-1.96 0.201-3.92 0.437-5.88 0.688-1.09 0.128-2.18 0.255-3.3 0.387-2.93 0.631-2.93 0.631-4.09 2.94-0.774 3.18-1.43 6.35-2.02 9.57-3.03 16.4-9.92 30.4-23.7 40.4-10.1 5.23-20.4 6.27-31.5 3.82-6.79-2.24-12.6-6.84-16.5-12.8-6.33-14.3-2.07-31.9 3-46 6.35-15.5 16.5-28.8 32.2-35.4 9.56-3.49 21.4-4.7 29.8 2.04z" fill="#0F1C14"/>
<path transform="translate(1109,739)" d="m0 0h19c0.33 68.6 0.66 137 1 208 2.64 0.66 5.28 1.32 8 2 16.6 5.96 29.6 17.5 37.3 33.4 7.02 17.4 4.51 36.7-2.31 53.6h-2c-0.227 0.866-0.454 1.73-0.688 2.62-3.6 9.26-13.1 16.1-21.3 21.4-0.557 0.36-1.11 0.719-1.69 1.09-13.6 7.78-31.3 7.32-46.1 3.84-4.29-1.24-8.27-2.87-12.2-4.93v-2c-0.723-0.244-1.45-0.487-2.19-0.738-7.55-3.39-13.8-10.8-18.8-17.3v-2c4.27-0.0579 8.54-0.0936 12.8-0.125 1.21-0.0168 2.43-0.0335 3.68-0.0508 1.16-0.00645 2.33-0.0129 3.53-0.0195 1.07-0.0105 2.15-0.0209 3.25-0.0317 2.73 0.227 2.73 0.227 5.73 2.23v2c0.969 0.268 1.94 0.536 2.94 0.812 2.09 0.58 4.09 1.2 6.11 1.99 9.7 3.73 19.4 3.06 29-0.801 4.38-1.96 7.7-4.21 11.2-7.44 1.28-1.14 1.28-1.14 2.58-2.31 1.97-2.05 3.1-3.65 4.17-6.25h2c0.481-1.42 0.96-2.83 1.44-4.25 0.267-0.789 0.534-1.58 0.809-2.39 0.249-0.779 0.498-1.56 0.754-2.36 0.189-0.593 0.379-1.19 0.574-1.8 2.57-13.3-0.233-24.9-7.57-36.2-1.96-1.71-3.96-3.38-6-5-0.478-0.501-0.956-1-1.45-1.52-6.82-6.51-17.5-8.38-26.6-8.48-3.12 0.361-6 1.07-9 2-0.678 0.196-1.36 0.392-2.05 0.594-4.81 1.57-8.38 4-12.3 7.2-1.66 1.21-1.66 1.21-3.66 1.21-0.227 0.516-0.454 1.03-0.688 1.56-1.81 3.36-4.05 6.37-6.31 9.44-0.66-0.33-1.32-0.66-2-1v-2c-0.572-0.214-1.14-0.428-1.73-0.648-3.04-1.81-4.5-4.08-6.52-6.98-0.706-1-1.41-2.01-2.14-3.04-0.531-0.771-1.06-1.54-1.61-2.34 1.45-2.89 3.7-4.75 6-7 0.557-0.598 1.11-1.2 1.69-1.81 1.31-1.19 1.31-1.19 3.31-1.19v-2c0.959-0.433 0.959-0.433 1.94-0.875 2.21-0.953 2.21-0.953 3.06-3.12 3.23-1.87 6.63-3.41 10-5 0.639-0.316 1.28-0.632 1.94-0.957 4.39-2.06 8.3-2.51 13.1-3.04-0.0236-1.03-0.0473-2.05-0.0716-3.11-0.22-9.68-0.412-19.4-0.579-29-0.0864-4.98-0.182-9.95-0.3-14.9-0.113-4.8-0.201-9.61-0.272-14.4-0.0314-1.83-0.0718-3.66-0.121-5.49-0.0679-2.57-0.104-5.14-0.132-7.71-0.0273-0.755-0.0547-1.51-0.0828-2.29-0.0128-5.89 1.81-7.87 5.56-12v-4h-4v-115z" fill="#000100"/>
<path transform="translate(672,884)" d="m0 0c8.52 8.53 12.2 17.2 12.2 29.1-0.0356 14.6-5.46 25-15.2 35.9-10.5 8.64-20.5 13.3-34.2 13.7-2.96 0.0774-2.96 0.0774-5.75 2.27-0.856 2.24-0.856 2.24-1.35 4.91-0.22 1.02-0.44 2.04-0.667 3.09-0.225 1.11-0.45 2.21-0.682 3.35-0.24 1.13-0.48 2.26-0.727 3.42-0.765 3.61-1.51 7.23-2.26 10.9-0.515 2.45-1.03 4.9-1.55 7.34-1.27 6.01-2.52 12-3.76 18h-27c-1.65-3.29-0.18-6.66 0.59-10.1 0.179-0.831 0.359-1.66 0.544-2.52 0.595-2.75 1.2-5.49 1.8-8.24 0.416-1.91 0.832-3.82 1.25-5.74 1.26-5.8 2.54-11.6 3.81-17.4 0.368-1.67 0.735-3.34 1.1-5.01 1.8-8.19 3.62-16.4 5.46-24.6 0.979-4.37 1.95-8.73 2.9-13.1 0.629-2.87 1.26-5.73 1.9-8.6 0.435-1.97 0.864-3.95 1.29-5.92 2.81-12.6 2.81-12.6 5.35-16.8 4.12-2.05 8.53-2.5 13.1-3.12 1.19-0.168 2.37-0.335 3.6-0.508 2.83-0.311 5.5-0.524 8.34-0.367 0.33 0.33 0.66 0.66 1 1-0.173 6.75-1.57 13.4-3.03 19.9-0.196 0.901-0.392 1.8-0.594 2.73-0.62 2.85-1.25 5.69-1.87 8.54-0.627 2.86-1.25 5.71-1.87 8.57-0.386 1.77-0.774 3.54-1.17 5.3-1.01 4.64-1.86 9.23-2.46 13.9 5.46 0.84 8.5-1.1 12.8-4.18 8.59-7 15-17.2 17-28.2 1.04-11.1 1.52-21.2-5.38-30.4-4.59-4.95-10.4-6.27-16.9-6.62-13 0.465-26.5 4.85-36.2 13.6-8.9 9.64-11.6 21.7-11.3 34.4 0.00902 0.918 0.018 1.84 0.0273 2.78 0.0233 2.24 0.0561 4.48 0.0977 6.72-7.17 0.249-10.1-1.16-15.8-5.31-3.24-4.6-3.73-10.2-3.19-15.7 1.76-6.22 3.98-11.9 8-17 0.581-0.748 1.16-1.5 1.76-2.27 20.1-24.2 62.1-37.4 89.2-17.7z" fill="#0F1C14"/>
<path transform="translate(575,788)" d="m0 0c10.1 3.37 10.1 3.37 13.6 4.87 1.14 0.488 1.14 0.488 2.31 0.987 0.78 0.337 1.56 0.674 2.36 1.02 5.51 2.35 11 4.65 16.6 6.75 5.33 2.01 10.5 4.35 15.6 6.77 4.66 2.13 9.39 4.06 14.1 5.99 5.58 2.27 11.1 4.64 16.6 7.06 3.25 1.39 6.54 2.63 9.84 3.89 7.8 2.98 15.5 6.27 23.1 9.56 6.58 2.81 13.2 5.44 19.9 7.98 3.35 1.31 6.57 2.75 9.81 4.31 3.97 1.9 7.87 3.49 12.1 4.81v1h-156v-65z" fill="#000100"/>
<path transform="translate(1020,790)" d="m0 0c0.33 21.1 0.66 42.2 1 64-75.2-0.495-75.2-0.495-152-1 3.2-2.13 6.44-3.44 10-4.81 4.56-1.79 9.06-3.62 13.5-5.69 4.66-2.16 9.39-4.09 14.2-5.99 18.4-7.27 18.4-7.27 36.5-15.3 4.61-2.02 9.31-3.8 14-5.57 4-1.52 7.91-3.16 11.8-4.95 7.59-3.49 15.3-6.62 23.1-9.79 1.5-0.618 3.01-1.24 4.51-1.85 6.14-2.52 12.3-5.03 18.4-7.52 0.764-0.309 1.53-0.617 2.31-0.935 1.69-0.631 1.69-0.631 2.69-0.631z" fill="#000100"/>
<path transform="translate(943,933)" d="m0 0c2.05 1.55 2.89 2.4 3.35 4.95-0.152 5.47-0.83 10.6-2 16-0.256 1.22-0.256 1.22-0.517 2.46-0.36 1.7-0.724 3.4-1.09 5.1-0.558 2.58-1.1 5.17-1.64 7.75-0.354 1.66-0.709 3.33-1.06 4.99-0.16 0.762-0.319 1.52-0.483 2.31-1.73 7.9-3.91 14.5-9.56 20.5-3.93 1.97-8.71 1.46-13 1-2.67-1.78-3.62-2.79-4.57-5.82-3.39-17.1 4.08-36.7 12.9-51 4.92-6.7 9.31-9.95 17.6-8.2z" fill="#FCFDFF"/>
<path transform="translate(736,933)" d="m0 0c2.19 2.64 2.93 4.56 3.5 7.94-0.5 3.06-0.5 3.06-3 6-2.8 2.88-2.8 2.88-3 6.69 0.213 3.33 0.213 3.33 2 5.32 2.74 3.76 2.09 7.6 1.5 12.1-2.38 10.5-5.69 20.4-13.9 27.7-3.56 2.19-7.03 2-11.1 1.27-3-1.88-3-1.88-5-5-1.03-4.55-1.48-8.55 0-13 0.0778-1.5 0.138-3 0.188-4.5 1.23-14 6.9-32.8 17.9-42.3 3.93-2.92 6.29-3.81 10.9-2.18z" fill="#FCFDFF"/>
<path transform="translate(767,1038)" d="m0 0c7.88-0.0254 15.8-0.0429 23.7-0.0549 2.68-0.00446 5.36-0.0114 8.05-0.0205 3.85-0.0121 7.71-0.0178 11.6-0.0222 1.8-0.00774 1.8-0.00774 3.63-0.0156 1.12-7.55e-5 2.24-1.51e-4 3.4-2.29e-4 0.984-0.00222 1.97-0.00444 2.98-0.00673 2.68 0.118 5.12 0.521 7.73 1.12-0.959 0.402-0.959 0.402-1.94 0.812-2.39 1.07-2.39 1.07-3.06 4.19-4.5 4.78-10.1 8.72-15.2 12.8-0.594 0.48-1.19 0.96-1.8 1.46-6.54 5.17-6.54 5.17-10 5.73-2.4-1.36-4.18-2.61-6.25-4.38-0.567-0.46-1.13-0.919-1.72-1.39-4.18-3.42-8.25-6.98-12.2-10.6-1.92-1.77-1.92-1.77-4.8-3.59v-2c-2.48-0.99-2.48-0.99-5-2 0.33-0.66 0.66-1.32 1-2z" fill="#000100"/>
</svg>
